HIERARCHY
ROOT Hips
{
  OFFSET 29.0378 98.6471 -20.01
  CHANNELS 6 Xposition Yposition Zposition Zrotation Xrotation Yrotation
  JOINT spine
  {
    OFFSET 0 8.30104 0.477351
    CHANNELS 3 Zrotation Xrotation Yrotation
    JOINT spine1
    {
      OFFSET 0 10.4565 0
      CHANNELS 3 Zrotation Xrotation Yrotation
      JOINT spine2
      {
        OFFSET 0 10.0192 0
        CHANNELS 3 Zrotation Xrotation Yrotation
        JOINT Neck
        {
          OFFSET 0 25.7235 1.22641
          CHANNELS 3 Zrotation Xrotation Yrotation
          JOINT Head
          {
            OFFSET 0 7.77175 0
            CHANNELS 3 Zrotation Xrotation Yrotation
            End Site
            {
              OFFSET 0 18.812 -6.20394
            }
          }
        }
        JOINT RightShoulder
        {
          OFFSET -4.2188 10.82 -0.587439
          CHANNELS 3 Zrotation Xrotation Yrotation
          JOINT RightArm
          {
            OFFSET 0 14.1914 0
            CHANNELS 3 Zrotation Xrotation Yrotation
            JOINT RightArmRoll
            {
              OFFSET 0 7.16409 0
              CHANNELS 3 Zrotation Xrotation Yrotation
              JOINT RightForeArm
              {
                OFFSET 0 20.8665 0
                CHANNELS 3 Zrotation Xrotation Yrotation
                JOINT RightForeArmRoll
                {
                  OFFSET 0 8.03921 0
                  CHANNELS 3 Zrotation Xrotation Yrotation
                  JOINT RightHand
                  {
                    OFFSET 0 16.133 0
                    CHANNELS 3 Zrotation Xrotation Yrotation
                    End Site
                    {
                      OFFSET 0 0 0
                    }
                  }
                }
              }
            }
          }
        }
        JOINT LeftShoulder
        {
          OFFSET 4.2188 10.82 -0.587439
          CHANNELS 3 Zrotation Xrotation Yrotation
          JOINT LeftArm
          {
            OFFSET 0 14.1914 0
            CHANNELS 3 Zrotation Xrotation Yrotation
            JOINT LeftArmRoll
            {
              OFFSET 0 7.16408 0
              CHANNELS 3 Zrotation Xrotation Yrotation
              JOINT LeftForeArm
              {
                OFFSET 0 20.8665 0
                CHANNELS 3 Zrotation Xrotation Yrotation
                JOINT LeftForeArmRoll
                {
                  OFFSET 0 8.03921 0
                  CHANNELS 3 Zrotation Xrotation Yrotation
                  JOINT LeftHand
                  {
                    OFFSET 0 16.133 0
                    CHANNELS 3 Zrotation Xrotation Yrotation
                    End Site
                    {
                      OFFSET 0 0 0
                    }
                  }
                }
              }
            }
          }
        }
      }
    }
  }
  JOINT RightUpLeg
  {
    OFFSET -7.35773 -1.34921 -1.13181
    CHANNELS 3 Zrotation Xrotation Yrotation
    JOINT RightUpLegRoll
    {
      OFFSET 0 18.9168 0
      CHANNELS 3 Zrotation Xrotation Yrotation
      JOINT RightLeg
      {
        OFFSET 0 -23.4256 0
        CHANNELS 3 Zrotation Xrotation Yrotation
        JOINT RightLegRoll
        {
          OFFSET 0 23.5023 0
          CHANNELS 3 Zrotation Xrotation Yrotation
          JOINT RightFoot
          {
            OFFSET 0 19.5617 0
            CHANNELS 3 Zrotation Xrotation Yrotation
            JOINT RightToeBase
            {
              OFFSET 0 16.3526 0
              CHANNELS 3 Zrotation Xrotation Yrotation
              End Site
              {
                OFFSET 0.00693125 7.91944 -0.912837
              }
            }
          }
        }
      }
    }
  }
  JOINT LeftUpLeg
  {
    OFFSET 7.35773 -1.34921 -1.13181
    CHANNELS 3 Zrotation Xrotation Yrotation
    JOINT LeftUpLegRoll
    {
      OFFSET 0 18.9169 0
      CHANNELS 3 Zrotation Xrotation Yrotation
      JOINT LeftLeg
      {
        OFFSET 0 23.4255 0
        CHANNELS 3 Zrotation Xrotation Yrotation
        JOINT LeftLegRoll
        {
          OFFSET 0 23.7195 0
          CHANNELS 3 Zrotation Xrotation Yrotation
          JOINT LeftFoot
          {
            OFFSET 0 19.3444 0
            CHANNELS 3 Zrotation Xrotation Yrotation
            JOINT LeftToeBase
            {
              OFFSET 0 16.3526 0
              CHANNELS 3 Zrotation Xrotation Yrotation
              End Site
              {
                OFFSET -0.0310629 7.91944 -0.912837
              }
            }
          }
        }
      }
    }
  }
}
MOTION
Frames: 5
Frame Time: 0.00208333
36.8175 122.257 -5.32922 -2.0984 -1.04793 1.06509 0.477199 -0.752995 0.132236 0.955535 2.49753 0.209684 0.954037 4.14246 0.193821 -0.35412 15.0292 -1.73547 -0.0801491 -13.1451 -1.83974 70.4447 -1.33404 -2.0277 91.6207 16.3425 23.175 1.27222e-014 -1.11319e-014 6.36111e-015 13.4465 0.915237 0.0328156 7.43893e-006 -2.01052e-006 -3.00455 8.02908 -4.95146 0.697667 -62.6637 0.559294 0.167529 -100.097 11.6548 -9.72645 1.47101e-014 -5.56597e-015 -0 -12.9023 20.6854 3.04775 2.75777e-006 -2.46574e-006 3 -8.02893 -4.95147 -0.697692 170.593 4.8795 5.66144 180 7.01517e-015 178.8 175.267 19.1913 179.879 -2.44767e-006 -2.10421e-006 0.276142 -18.3724 67.6941 19.2755 8.1365 25.2327 -3.48774 -168.043 4.10347 -5.26946 4.54188e-006 -4.6773e-006 -1.31005 -4.74227 -12.8769 0.143522 1.9642e-006 -4.48545e-006 -0.211747 17.092 65.7245 -17.8251 -8.13649 25.2327 3.48774 
36.793 122.226 -5.35601 -2.10273 -1.00819 1.06244 0.472816 -0.756128 0.130329 0.946756 2.49126 0.207798 0.945271 4.13618 0.192081 -0.296777 15.0907 -1.74419 -0.110084 -13.1854 -1.83867 70.5098 -1.32065 -2.02752 91.5255 16.339 23.1956 -6.36111e-015 -1.59028e-015 6.36111e-015 13.4577 0.896617 0.0355426 7.43893e-006 -2.01052e-006 -3.00454 8.02908 -4.95146 0.697667 -62.6212 0.542367 0.1717 -100.109 11.6626 -9.6949 -8.94531e-015 -8.74653e-015 -0 -12.9055 20.7755 3.06034 2.75777e-006 -2.46574e-006 3 -8.02893 -4.95147 -0.697692 170.59 4.89402 5.63006 180 7.01518e-015 178.802 175.291 19.0762 179.874 -2.44767e-006 -2.10421e-006 0.274435 -18.3736 67.696 19.2765 8.1365 25.2327 -3.48774 -168.032 4.09788 -5.23255 4.54188e-006 -4.6773e-006 -1.30886 -4.71535 -12.7162 0.149188 1.9642e-006 -4.48545e-006 -0.208079 17.0798 65.7009 -17.809 -8.13649 25.2327 3.48774 
36.8214 122.22 -5.37038 -2.10616 -0.968138 1.06137 0.468287 -0.759329 0.128391 0.937689 2.48484 0.2062 0.936211 4.12978 0.190633 -0.234374 15.1525 -1.7548 -0.144394 -13.2279 -1.83896 70.5755 -1.30842 -2.02797 91.4299 16.3327 23.2166 3.97569e-015 -4.77083e-015 -3.18055e-015 13.4693 0.8821 0.0376509 7.43893e-006 -2.01052e-006 -3.00453 8.02908 -4.95146 0.697667 -62.5773 0.527802 0.174375 -100.122 11.6704 -9.66154 4.57205e-015 -7.15625e-015 -0 -12.9093 20.8651 3.07286 2.75777e-006 -2.46574e-006 3 -8.02893 -4.95147 -0.697692 170.583 4.90804 5.6043 180 7.01518e-015 178.805 175.31 18.9619 179.87 -2.44767e-006 -2.10421e-006 0.272874 -18.3745 67.6975 19.2773 8.1365 25.2327 -3.48774 -168.023 4.09355 -5.19498 4.54188e-006 -4.6773e-006 -1.30785 -4.68738 -12.5594 0.154928 1.9642e-006 -4.48545e-006 -0.204456 17.0676 65.6774 -17.7931 -8.13649 25.2327 3.48774 
36.8448 122.179 -5.39451 -2.10889 -0.927808 1.06164 0.463659 -0.762593 0.126437 0.928424 2.47831 0.20484 0.926951 4.12324 0.189427 -0.16782 15.2148 -1.76699 -0.182294 -13.2724 -1.84038 70.6413 -1.29718 -2.02894 91.3341 16.324 23.2378 7.15625e-015 -7.95139e-015 -0 13.4816 0.871376 0.0391868 7.43893e-006 -2.01052e-006 -3.00452 8.02908 -4.95146 0.697667 -62.5324 0.515486 0.175682 -100.137 11.6781 -9.62662 -1.09332e-014 -9.54166e-015 -1.59028e-015 -12.9137 20.9545 3.08535 2.75777e-006 -2.46574e-006 3 -8.02893 -4.95147 -0.697692 170.571 4.92196 5.58357 180 7.01519e-015 178.807 175.325 18.8491 179.866 -2.44767e-006 -2.10421e-006 0.271447 -18.3751 67.6986 19.2779 8.1365 25.2327 -3.48774 -168.014 4.09052 -5.15713 4.54188e-006 -4.6773e-006 -1.30703 -4.65858 -12.4063 0.160708 1.9642e-006 -4.48545e-006 -0.200885 17.0556 65.654 -17.7773 -8.13649 25.2327 3.48774 
36.8528 122.16 -5.39686 -2.11115 -0.887243 1.06304 0.458979 -0.765914 0.12448 0.919053 2.47166 0.203668 0.917584 4.1166 0.188412 -0.0980254 15.2779 -1.78042 -0.222997 -13.3191 -1.84269 70.7071 -1.2868 -2.03035 91.2385 16.3129 23.2589 2.38542e-014 -9.54166e-015 3.18055e-015 13.4944 0.864134 0.0401967 7.43893e-006 -2.01052e-006 -3.00451 8.02908 -4.95146 0.697667 -62.487 0.505307 0.175746 -100.152 11.6855 -9.59043 1.39149e-015 -3.97569e-015 1.59028e-015 -12.9188 21.0441 3.09787 2.75777e-006 -2.46574e-006 3 -8.02893 -4.95147 -0.697692 170.556 4.9362 5.56732 180 7.0152e-015 178.81 175.337 18.7384 179.864 -2.44767e-006 -2.10421e-006 0.270142 -18.3755 67.6995 19.2784 8.1365 25.2327 -3.48774 -168.006 4.08884 -5.11942 4.54188e-006 -4.6773e-006 -1.30636 -4.62919 -12.2571 0.166497 1.9642e-006 -4.48545e-006 -0.197371 17.0437 65.6307 -17.7616 -8.13649 25.2327 3.48774 
